# xmcd
#
# Track frame offsets: 
#        150
#        31077
#        51490
#        73412
#        92867
#        116602
#        131170
#        163035
#        182207
#        214590
#        240230
#        263255
#
# Disc length: 3787 seconds
#
# Revision: 0
# Processed by: cddbd v1.5.2PL0 Copyright (c) Steve Scherf et al.
# Submitted via: ExactAudioCopy v1.0b3
#
DISCID=a80ec90c
DTITLE=Huong Lan - Cuoi Cung Cho Mot Tinh Yeu
DYEAR=1988
DGENRE=
TTITLE0=Huyen su ca nguoi mang ten Quoc
TTITLE1=Giac ngu co don
TTITLE2=Ngay da dom bong
TTITLE3=Khuya nay anh di roi
TTITLE4=Tra lai anh
TTITLE5=Cuoi cung cho mot tinh yeu
TTITLE6=Tinh yeu nhu bong may
TTITLE7=Tieng mua roi
TTITLE8=Con duong tinh ta di
TTITLE9=Chieu thuong do thi
TTITLE10=Thuong tinh ca
TTITLE11=Nguoi quen ke nho
EXTD=
EXTT0=
EXTT1=
EXTT2=
EXTT3=
EXTT4=
EXTT5=
EXTT6=
EXTT7=
EXTT8=
EXTT9=
EXTT10=
EXTT11=
PLAYORDER=
